# xmcd
#
# Track frame offsets: 
#        150
#        15563
#        28531
#        42583
#        57828
#        71695
#        86528
#        101774
#        117563
#        133210
#        146497
#        160869
#        175407
#        190101
#        207114
#        220105
#        234404
#
# Disc length: 3309 seconds
#
# Revision: 0
# Processed by: cddbd v1.5.2PL0 Copyright (c) Steve Scherf et al.
# Submitted via: ExactAudioCopyFreeDBPlugin 1.0
#
DISCID=f30ceb11
DTITLE=Asha Bhosle with Rahul Dev Burman - Mone Pore Rubi Roy
DYEAR=2002
DGENRE=Bengali Modern
TTITLE0=Rahul Dev Burman - Mone Pore Rubi Roy
TTITLE1=Asha Bhosle - Aashbo Aarek Din
TTITLE2=Rahul Dev Burman - Jete Jete Pothe Holo Deri
TTITLE3=Asha Bhosle - Jete Paaro, Jete Paaro
TTITLE4=Rahul Dev Burman - Deke Deke Kata
TTITLE5=Asha Bhosle - Chokhe Naame Brishti
TTITLE6=Rahul Dev Burman - Phire Esho Anuradha
TTITLE7=Asha Bhosle - Ki Jaadu Tomar Chokhe
TTITLE8=Rahul Dev Burman - Sajani Go Premer Kotha
TTITLE9=Asha Bhosle - Maachher Kaanta, Khhopaar Kaanta
TTITLE10=Rahul Dev Burman - Shono Mon Boli Tomay
TTITLE11=Asha Bhosle - Kine De Reshmi Churi
TTITLE12=Rahul Dev Burman - Bolo Ki Acche Go
TTITLE13=Asha Bhosle - Ekta Deshlai Kaathi Jwalao
TTITLE14=Rahul Dev Burman - Tomate Aamate Dekha Hoyechhilo
TTITLE15=Asha Bhosle and Rahul Dev Burman - Janina Kothay Tumi
TTITLE16=Rahul Dev Burman - Swapno Aamar
EXTD=
EXTT0=
EXTT1=
EXTT2=
EXTT3=
EXTT4=
EXTT5=
EXTT6=
EXTT7=
EXTT8=
EXTT9=
EXTT10=
EXTT11=
EXTT12=
EXTT13=
EXTT14=
EXTT15=
EXTT16=
PLAYORDER=
